<mxfile host="65bd71144e">
    <diagram id="_dQujclmAbDN-xYh9aU0" name="Page-1">
        <mxGraphModel dx="2320" dy="1904" grid="1" gridSize="10" guides="1" tooltips="1" connect="1" arrows="1" fold="1" page="1" pageScale="1" pageWidth="850" pageHeight="1100" background="#ffffff" math="0" shadow="0">
            <root>
                <mxCell id="0"/>
                <mxCell id="1" parent="0"/>
                <mxCell id="162" style="edgeStyle=none;html=1;fillColor=#FFFFFF;strokeColor=#000000;fontColor=#0d0c0c;" parent="1" source="2" edge="1">
                    <mxGeometry relative="1" as="geometry">
                        <mxPoint x="360" y="2770" as="targetPoint"/>
                        <Array as="points">
                            <mxPoint x="360" y="-540"/>
                        </Array>
                    </mxGeometry>
                </mxCell>
                <mxCell id="174" style="edgeStyle=none;html=1;entryX=0;entryY=0.5;entryDx=0;entryDy=0;exitX=1;exitY=0.5;exitDx=0;exitDy=0;fillColor=#FFFFFF;strokeColor=#000000;fontColor=#0d0c0c;" parent="1" source="3" target="27" edge="1">
                    <mxGeometry relative="1" as="geometry">
                        <Array as="points">
                            <mxPoint x="580" y="-540"/>
                            <mxPoint x="580" y="-660"/>
                        </Array>
                    </mxGeometry>
                </mxCell>
                <mxCell id="175" style="edgeStyle=none;html=1;entryX=0;entryY=0.5;entryDx=0;entryDy=0;exitX=1;exitY=0.5;exitDx=0;exitDy=0;fillColor=#FFFFFF;strokeColor=#000000;fontColor=#0d0c0c;" parent="1" source="3" target="29" edge="1">
                    <mxGeometry relative="1" as="geometry">
                        <Array as="points">
                            <mxPoint x="580" y="-540"/>
                            <mxPoint x="580" y="-440"/>
                        </Array>
                    </mxGeometry>
                </mxCell>
                <mxCell id="3" value="服务器端应用" style="rounded=1;whiteSpace=wrap;html=1;fillColor=#FFFFFF;strokeColor=#FF9933;fontColor=#0d0c0c;" parent="1" vertex="1">
                    <mxGeometry x="420" y="-560" width="120" height="40" as="geometry"/>
                </mxCell>
                <mxCell id="196" style="edgeStyle=none;html=1;entryX=0;entryY=0.5;entryDx=0;entryDy=0;exitX=1;exitY=0.5;exitDx=0;exitDy=0;fillColor=#FFFFFF;strokeColor=#000000;fontColor=#0d0c0c;" parent="1" source="6" target="71" edge="1">
                    <mxGeometry relative="1" as="geometry">
                        <Array as="points">
                            <mxPoint x="560" y="260"/>
                            <mxPoint x="560" y="-10"/>
                        </Array>
                    </mxGeometry>
                </mxCell>
                <mxCell id="197" style="edgeStyle=none;html=1;entryX=0;entryY=0.5;entryDx=0;entryDy=0;fillColor=#FFFFFF;strokeColor=#000000;fontColor=#0d0c0c;" parent="1" target="82" edge="1">
                    <mxGeometry relative="1" as="geometry">
                        <mxPoint x="520" y="260" as="sourcePoint"/>
                        <Array as="points">
                            <mxPoint x="560" y="260"/>
                            <mxPoint x="560" y="650"/>
                        </Array>
                    </mxGeometry>
                </mxCell>
                <mxCell id="6" value="云原生应用" style="rounded=1;whiteSpace=wrap;html=1;fillColor=#FFFFFF;strokeColor=#E51400;fontColor=#0d0c0c;" parent="1" vertex="1">
                    <mxGeometry x="400" y="240" width="120" height="40" as="geometry"/>
                </mxCell>
                <mxCell id="226" style="edgeStyle=none;html=1;exitX=1;exitY=0.5;exitDx=0;exitDy=0;entryX=0;entryY=0.5;entryDx=0;entryDy=0;fillColor=#FFFFFF;strokeColor=#000000;fontColor=#0d0c0c;" parent="1" source="8" target="42" edge="1">
                    <mxGeometry relative="1" as="geometry">
                        <Array as="points">
                            <mxPoint x="560" y="1220"/>
                            <mxPoint x="560" y="1140"/>
                        </Array>
                    </mxGeometry>
                </mxCell>
                <mxCell id="227" style="edgeStyle=none;html=1;exitX=1;exitY=0.5;exitDx=0;exitDy=0;fillColor=#FFFFFF;strokeColor=#000000;fontColor=#0d0c0c;" parent="1" source="8" target="43" edge="1">
                    <mxGeometry relative="1" as="geometry"/>
                </mxCell>
                <mxCell id="228" style="edgeStyle=none;html=1;entryX=0;entryY=0.5;entryDx=0;entryDy=0;exitX=1;exitY=0.5;exitDx=0;exitDy=0;fillColor=#FFFFFF;strokeColor=#000000;fontColor=#0d0c0c;" parent="1" source="8" target="44" edge="1">
                    <mxGeometry relative="1" as="geometry">
                        <Array as="points">
                            <mxPoint x="560" y="1220"/>
                            <mxPoint x="560" y="1300"/>
                        </Array>
                    </mxGeometry>
                </mxCell>
                <mxCell id="8" value="Windows客户端&lt;br&gt;应用程序" style="rounded=1;whiteSpace=wrap;html=1;fillColor=#FFFFFF;strokeColor=#E3C800;fontColor=#0d0c0c;" parent="1" vertex="1">
                    <mxGeometry x="400" y="1200" width="120" height="40" as="geometry"/>
                </mxCell>
                <mxCell id="137" style="edgeStyle=none;html=1;exitX=0;exitY=0.5;exitDx=0;exitDy=0;entryX=1;entryY=0.5;entryDx=0;entryDy=0;fillColor=#FFFFFF;strokeColor=#000000;fontColor=#0d0c0c;" parent="1" source="11" target="102" edge="1">
                    <mxGeometry relative="1" as="geometry">
                        <Array as="points">
                            <mxPoint x="120" y="-20"/>
                            <mxPoint x="120" y="-260"/>
                        </Array>
                    </mxGeometry>
                </mxCell>
                <mxCell id="138" style="edgeStyle=none;html=1;entryX=1;entryY=0.5;entryDx=0;entryDy=0;exitX=0;exitY=0.5;exitDx=0;exitDy=0;fillColor=#FFFFFF;strokeColor=#000000;fontColor=#0d0c0c;" parent="1" source="11" target="103" edge="1">
                    <mxGeometry relative="1" as="geometry">
                        <Array as="points">
                            <mxPoint x="120" y="-20"/>
                        </Array>
                    </mxGeometry>
                </mxCell>
                <mxCell id="139" style="edgeStyle=none;html=1;entryX=1;entryY=0.5;entryDx=0;entryDy=0;exitX=0;exitY=0.5;exitDx=0;exitDy=0;fillColor=#FFFFFF;strokeColor=#000000;fontColor=#0d0c0c;" parent="1" source="11" target="105" edge="1">
                    <mxGeometry relative="1" as="geometry">
                        <mxPoint x="120" y="60" as="sourcePoint"/>
                        <Array as="points">
                            <mxPoint x="120" y="-20"/>
                            <mxPoint x="120" y="230"/>
                        </Array>
                    </mxGeometry>
                </mxCell>
                <mxCell id="11" value="数据库" style="rounded=1;whiteSpace=wrap;html=1;fillColor=#FFFFFF;strokeColor=#00CC00;fontColor=#0d0c0c;" parent="1" vertex="1">
                    <mxGeometry x="180" y="-40" width="120" height="40" as="geometry"/>
                </mxCell>
                <mxCell id="238" style="edgeStyle=none;html=1;entryX=1;entryY=0.5;entryDx=0;entryDy=0;exitX=0;exitY=0.5;exitDx=0;exitDy=0;fillColor=#000000;fontColor=#0d0c0c;strokeColor=#000000;" parent="1" source="13" target="96" edge="1">
                    <mxGeometry relative="1" as="geometry">
                        <Array as="points">
                            <mxPoint x="120" y="-540"/>
                            <mxPoint x="120" y="-700"/>
                        </Array>
                    </mxGeometry>
                </mxCell>
                <mxCell id="239" style="edgeStyle=none;html=1;entryX=1;entryY=0.5;entryDx=0;entryDy=0;fillColor=#000000;fontColor=#0d0c0c;strokeColor=#000000;" parent="1" target="97" edge="1">
                    <mxGeometry relative="1" as="geometry">
                        <mxPoint x="180" y="-540" as="sourcePoint"/>
                        <Array as="points">
                            <mxPoint x="120" y="-540"/>
                            <mxPoint x="120" y="-630"/>
                        </Array>
                    </mxGeometry>
                </mxCell>
                <mxCell id="240" style="edgeStyle=none;html=1;entryX=1;entryY=0.5;entryDx=0;entryDy=0;exitX=0;exitY=0.5;exitDx=0;exitDy=0;fillColor=#000000;fontColor=#0d0c0c;strokeColor=#000000;" parent="1" source="13" target="98" edge="1">
                    <mxGeometry relative="1" as="geometry">
                        <Array as="points">
                            <mxPoint x="120" y="-540"/>
                            <mxPoint x="120" y="-570"/>
                        </Array>
                    </mxGeometry>
                </mxCell>
                <mxCell id="241" style="edgeStyle=none;html=1;entryX=1;entryY=0.5;entryDx=0;entryDy=0;exitX=0;exitY=0.5;exitDx=0;exitDy=0;fillColor=#000000;fontColor=#0d0c0c;strokeColor=#000000;" parent="1" source="13" target="99" edge="1">
                    <mxGeometry relative="1" as="geometry">
                        <Array as="points">
                            <mxPoint x="120" y="-540"/>
                            <mxPoint x="120" y="-500"/>
                        </Array>
                    </mxGeometry>
                </mxCell>
                <mxCell id="242" style="edgeStyle=none;html=1;entryX=1;entryY=0.5;entryDx=0;entryDy=0;exitX=0;exitY=0.5;exitDx=0;exitDy=0;fillColor=#000000;fontColor=#0d0c0c;strokeColor=#000000;" parent="1" source="13" target="101" edge="1">
                    <mxGeometry relative="1" as="geometry">
                        <Array as="points">
                            <mxPoint x="120" y="-540"/>
                            <mxPoint x="120" y="-440"/>
                        </Array>
                    </mxGeometry>
                </mxCell>
                <mxCell id="13" value="IOT应用程序" style="rounded=1;whiteSpace=wrap;html=1;fillColor=#FFFFFF;strokeColor=#FF3333;fontColor=#0d0c0c;" parent="1" vertex="1">
                    <mxGeometry x="180" y="-560" width="120" height="40" as="geometry"/>
                </mxCell>
                <mxCell id="155" style="edgeStyle=none;html=1;entryX=1;entryY=0.5;entryDx=0;entryDy=0;fillColor=#FFFFFF;strokeColor=#000000;fontColor=#0d0c0c;" parent="1" target="111" edge="1">
                    <mxGeometry relative="1" as="geometry">
                        <mxPoint x="170" y="692" as="sourcePoint"/>
                        <Array as="points">
                            <mxPoint x="80" y="692"/>
                            <mxPoint x="80" y="610"/>
                        </Array>
                    </mxGeometry>
                </mxCell>
                <mxCell id="157" style="edgeStyle=none;html=1;entryX=1;entryY=0.5;entryDx=0;entryDy=0;fillColor=#FFFFFF;strokeColor=#000000;fontColor=#0d0c0c;" parent="1" source="15" target="108" edge="1">
                    <mxGeometry relative="1" as="geometry">
                        <Array as="points">
                            <mxPoint x="80" y="690"/>
                            <mxPoint x="80" y="460"/>
                        </Array>
                    </mxGeometry>
                </mxCell>
                <mxCell id="159" style="edgeStyle=none;html=1;entryX=1;entryY=0.5;entryDx=0;entryDy=0;fillColor=#FFFFFF;strokeColor=#000000;fontColor=#0d0c0c;" parent="1" source="15" target="109" edge="1">
                    <mxGeometry relative="1" as="geometry">
                        <Array as="points">
                            <mxPoint x="80" y="690"/>
                            <mxPoint x="80" y="530"/>
                        </Array>
                    </mxGeometry>
                </mxCell>
                <mxCell id="281" style="edgeStyle=none;html=1;exitX=0;exitY=0.5;exitDx=0;exitDy=0;entryX=1;entryY=0.5;entryDx=0;entryDy=0;fillColor=#FFFFFF;strokeColor=#000000;fontColor=#0d0c0c;" parent="1" source="15" target="122" edge="1">
                    <mxGeometry relative="1" as="geometry"/>
                </mxCell>
                <mxCell id="282" style="edgeStyle=none;html=1;entryX=1;entryY=0.5;entryDx=0;entryDy=0;fillColor=#FFFFFF;strokeColor=#000000;fontColor=#0d0c0c;" parent="1" source="15" target="110" edge="1">
                    <mxGeometry relative="1" as="geometry">
                        <Array as="points">
                            <mxPoint x="80" y="690"/>
                            <mxPoint x="80" y="790"/>
                        </Array>
                    </mxGeometry>
                </mxCell>
                <mxCell id="15" value="AI/机器学习" style="rounded=1;whiteSpace=wrap;html=1;fillColor=#FFFFFF;strokeColor=#0050EF;fontColor=#0d0c0c;" parent="1" vertex="1">
                    <mxGeometry x="170" y="672" width="120" height="40" as="geometry"/>
                </mxCell>
                <mxCell id="231" style="edgeStyle=none;html=1;entryX=0;entryY=0.5;entryDx=0;entryDy=0;exitX=1;exitY=0.5;exitDx=0;exitDy=0;fillColor=#FFFFFF;strokeColor=#000000;fontColor=#0d0c0c;" parent="1" source="18" target="52" edge="1">
                    <mxGeometry relative="1" as="geometry">
                        <Array as="points">
                            <mxPoint x="560" y="1820"/>
                            <mxPoint x="560" y="1660"/>
                        </Array>
                    </mxGeometry>
                </mxCell>
                <mxCell id="232" style="edgeStyle=none;html=1;entryX=0;entryY=0.5;entryDx=0;entryDy=0;exitX=1;exitY=0.5;exitDx=0;exitDy=0;fillColor=#FFFFFF;strokeColor=#000000;fontColor=#0d0c0c;" parent="1" source="18" target="53" edge="1">
                    <mxGeometry relative="1" as="geometry">
                        <Array as="points">
                            <mxPoint x="560" y="1820"/>
                            <mxPoint x="560" y="1740"/>
                        </Array>
                    </mxGeometry>
                </mxCell>
                <mxCell id="233" style="edgeStyle=none;html=1;fillColor=#FFFFFF;strokeColor=#000000;fontColor=#0d0c0c;" parent="1" source="18" target="54" edge="1">
                    <mxGeometry relative="1" as="geometry"/>
                </mxCell>
                <mxCell id="234" style="edgeStyle=none;html=1;entryX=0;entryY=0.5;entryDx=0;entryDy=0;exitX=1;exitY=0.5;exitDx=0;exitDy=0;fillColor=#FFFFFF;strokeColor=#000000;fontColor=#0d0c0c;" parent="1" source="18" target="64" edge="1">
                    <mxGeometry relative="1" as="geometry">
                        <Array as="points">
                            <mxPoint x="560" y="1820"/>
                            <mxPoint x="560" y="1900"/>
                        </Array>
                    </mxGeometry>
                </mxCell>
                <mxCell id="235" style="edgeStyle=none;html=1;entryX=0;entryY=0.5;entryDx=0;entryDy=0;exitX=1;exitY=0.5;exitDx=0;exitDy=0;fillColor=#FFFFFF;strokeColor=#000000;fontColor=#0d0c0c;" parent="1" source="18" target="51" edge="1">
                    <mxGeometry relative="1" as="geometry">
                        <Array as="points">
                            <mxPoint x="560" y="1820"/>
                            <mxPoint x="560" y="1980"/>
                        </Array>
                    </mxGeometry>
                </mxCell>
                <mxCell id="18" value="控制台应用" style="rounded=1;whiteSpace=wrap;html=1;fillColor=#FFFFFF;strokeColor=#B37907;fontColor=#0d0c0c;" parent="1" vertex="1">
                    <mxGeometry x="400" y="1800" width="120" height="40" as="geometry"/>
                </mxCell>
                <mxCell id="286" style="edgeStyle=none;html=1;entryX=1;entryY=0.5;entryDx=0;entryDy=0;exitX=0;exitY=0.5;exitDx=0;exitDy=0;fillColor=#FFFFFF;strokeColor=#000000;fontColor=#0d0c0c;" parent="1" source="23" target="112" edge="1">
                    <mxGeometry relative="1" as="geometry">
                        <Array as="points">
                            <mxPoint x="120" y="1540"/>
                            <mxPoint x="120" y="1260"/>
                        </Array>
                    </mxGeometry>
                </mxCell>
                <mxCell id="287" style="edgeStyle=none;html=1;entryX=1;entryY=0.5;entryDx=0;entryDy=0;exitX=0;exitY=0.5;exitDx=0;exitDy=0;fillColor=#FFFFFF;strokeColor=#000000;fontColor=#0d0c0c;" parent="1" source="23" target="113" edge="1">
                    <mxGeometry relative="1" as="geometry">
                        <mxPoint x="160" y="1550" as="sourcePoint"/>
                        <Array as="points">
                            <mxPoint x="120" y="1540"/>
                            <mxPoint x="120" y="1340"/>
                        </Array>
                    </mxGeometry>
                </mxCell>
                <mxCell id="288" style="edgeStyle=none;html=1;exitX=0;exitY=0.5;exitDx=0;exitDy=0;entryX=1;entryY=0.5;entryDx=0;entryDy=0;fillColor=#FFFFFF;strokeColor=#000000;fontColor=#0d0c0c;" parent="1" source="23" target="115" edge="1">
                    <mxGeometry relative="1" as="geometry">
                        <Array as="points">
                            <mxPoint x="120" y="1540"/>
                            <mxPoint x="120" y="1420"/>
                        </Array>
                    </mxGeometry>
                </mxCell>
                <mxCell id="289" style="edgeStyle=none;html=1;entryX=1;entryY=0.5;entryDx=0;entryDy=0;exitX=0;exitY=0.5;exitDx=0;exitDy=0;fillColor=#FFFFFF;strokeColor=#000000;fontColor=#0d0c0c;" parent="1" source="23" target="116" edge="1">
                    <mxGeometry relative="1" as="geometry">
                        <Array as="points">
                            <mxPoint x="120" y="1540"/>
                            <mxPoint x="120" y="1500"/>
                        </Array>
                    </mxGeometry>
                </mxCell>
                <mxCell id="290" style="edgeStyle=none;html=1;entryX=1;entryY=0.5;entryDx=0;entryDy=0;exitX=0;exitY=0.5;exitDx=0;exitDy=0;fillColor=#FFFFFF;strokeColor=#000000;fontColor=#0d0c0c;" parent="1" source="23" target="117" edge="1">
                    <mxGeometry relative="1" as="geometry">
                        <Array as="points">
                            <mxPoint x="120" y="1540"/>
                            <mxPoint x="120" y="1580"/>
                        </Array>
                    </mxGeometry>
                </mxCell>
                <mxCell id="291" style="edgeStyle=none;html=1;entryX=1;entryY=0.5;entryDx=0;entryDy=0;exitX=0;exitY=0.5;exitDx=0;exitDy=0;fillColor=#FFFFFF;strokeColor=#000000;fontColor=#0d0c0c;" parent="1" source="23" target="114" edge="1">
                    <mxGeometry relative="1" as="geometry">
                        <Array as="points">
                            <mxPoint x="120" y="1540"/>
                            <mxPoint x="120" y="1660"/>
                        </Array>
                    </mxGeometry>
                </mxCell>
                <mxCell id="292" style="edgeStyle=none;html=1;entryX=1;entryY=0.5;entryDx=0;entryDy=0;exitX=0;exitY=0.5;exitDx=0;exitDy=0;fillColor=#FFFFFF;strokeColor=#000000;fontColor=#0d0c0c;" parent="1" source="23" target="120" edge="1">
                    <mxGeometry relative="1" as="geometry">
                        <Array as="points">
                            <mxPoint x="120" y="1540"/>
                            <mxPoint x="120" y="1740"/>
                        </Array>
                    </mxGeometry>
                </mxCell>
                <mxCell id="293" style="edgeStyle=none;html=1;entryX=1;entryY=0.5;entryDx=0;entryDy=0;fillColor=#FFFFFF;strokeColor=#000000;fontColor=#0d0c0c;" parent="1" target="118" edge="1">
                    <mxGeometry relative="1" as="geometry">
                        <mxPoint x="160" y="1540" as="sourcePoint"/>
                        <Array as="points">
                            <mxPoint x="120" y="1540"/>
                            <mxPoint x="120" y="1820"/>
                        </Array>
                    </mxGeometry>
                </mxCell>
                <mxCell id="294" style="edgeStyle=none;html=1;entryX=1;entryY=0.5;entryDx=0;entryDy=0;exitX=0;exitY=0.5;exitDx=0;exitDy=0;fillColor=#FFFFFF;strokeColor=#000000;fontColor=#0d0c0c;" parent="1" source="23" target="121" edge="1">
                    <mxGeometry relative="1" as="geometry">
                        <Array as="points">
                            <mxPoint x="120" y="1540"/>
                            <mxPoint x="120" y="1900"/>
                        </Array>
                    </mxGeometry>
                </mxCell>
                <mxCell id="23" value="游戏开发" style="rounded=1;whiteSpace=wrap;html=1;fillColor=#FFFFFF;strokeColor=#00994D;fontColor=#0d0c0c;shadow=0;" parent="1" vertex="1">
                    <mxGeometry x="160" y="1520" width="120" height="40" as="geometry"/>
                </mxCell>
                <mxCell id="176" style="edgeStyle=none;html=1;entryX=0;entryY=0.5;entryDx=0;entryDy=0;exitX=1;exitY=0.5;exitDx=0;exitDy=0;fillColor=#FFFFFF;strokeColor=#000000;fontColor=#0d0c0c;" parent="1" source="27" target="170" edge="1">
                    <mxGeometry relative="1" as="geometry">
                        <Array as="points">
                            <mxPoint x="770" y="-660"/>
                            <mxPoint x="770" y="-740"/>
                        </Array>
                    </mxGeometry>
                </mxCell>
                <mxCell id="177" style="edgeStyle=none;html=1;entryX=0;entryY=0.5;entryDx=0;entryDy=0;exitX=1;exitY=0.5;exitDx=0;exitDy=0;fillColor=#FFFFFF;strokeColor=#000000;fontColor=#0d0c0c;" parent="1" source="27" target="171" edge="1">
                    <mxGeometry relative="1" as="geometry">
                        <Array as="points">
                            <mxPoint x="770" y="-660"/>
                            <mxPoint x="770" y="-690"/>
                        </Array>
                    </mxGeometry>
                </mxCell>
                <mxCell id="178" style="edgeStyle=none;html=1;entryX=0;entryY=0.5;entryDx=0;entryDy=0;exitX=1;exitY=0.5;exitDx=0;exitDy=0;fillColor=#FFFFFF;strokeColor=#000000;fontColor=#0d0c0c;" parent="1" source="27" target="172" edge="1">
                    <mxGeometry relative="1" as="geometry">
                        <Array as="points">
                            <mxPoint x="770" y="-660"/>
                            <mxPoint x="770" y="-640"/>
                        </Array>
                    </mxGeometry>
                </mxCell>
                <mxCell id="179" style="edgeStyle=none;html=1;entryX=0;entryY=0.5;entryDx=0;entryDy=0;fillColor=#FFFFFF;strokeColor=#000000;fontColor=#0d0c0c;" parent="1" target="173" edge="1">
                    <mxGeometry relative="1" as="geometry">
                        <mxPoint x="730" y="-660" as="sourcePoint"/>
                        <Array as="points">
                            <mxPoint x="770" y="-660"/>
                            <mxPoint x="770" y="-589"/>
                        </Array>
                    </mxGeometry>
                </mxCell>
                <mxCell id="27" value="ASP.NET Core" style="rounded=1;whiteSpace=wrap;html=1;fillColor=#FFFFFF;strokeColor=#FF9933;fontColor=#0d0c0c;" parent="1" vertex="1">
                    <mxGeometry x="610" y="-680" width="120" height="40" as="geometry"/>
                </mxCell>
                <mxCell id="180" style="edgeStyle=none;html=1;entryX=0;entryY=0.5;entryDx=0;entryDy=0;exitX=1;exitY=0.5;exitDx=0;exitDy=0;fillColor=#FFFFFF;fontColor=#0d0c0c;strokeColor=#000000;" parent="1" source="29" target="35" edge="1">
                    <mxGeometry relative="1" as="geometry">
                        <Array as="points">
                            <mxPoint x="760" y="-440"/>
                            <mxPoint x="760" y="-520"/>
                        </Array>
                    </mxGeometry>
                </mxCell>
                <mxCell id="181" style="edgeStyle=none;html=1;entryX=0;entryY=0.5;entryDx=0;entryDy=0;exitX=1;exitY=0.5;exitDx=0;exitDy=0;fillColor=#FFFFFF;fontColor=#0d0c0c;strokeColor=#000000;" parent="1" source="29" target="37" edge="1">
                    <mxGeometry relative="1" as="geometry">
                        <Array as="points">
                            <mxPoint x="760" y="-440"/>
                            <mxPoint x="760" y="-470"/>
                        </Array>
                    </mxGeometry>
                </mxCell>
                <mxCell id="182" style="edgeStyle=none;html=1;entryX=0;entryY=0.5;entryDx=0;entryDy=0;exitX=1;exitY=0.5;exitDx=0;exitDy=0;fillColor=#FFFFFF;fontColor=#0d0c0c;strokeColor=#000000;" parent="1" source="29" target="36" edge="1">
                    <mxGeometry relative="1" as="geometry">
                        <Array as="points">
                            <mxPoint x="760" y="-440"/>
                            <mxPoint x="760" y="-420"/>
                        </Array>
                    </mxGeometry>
                </mxCell>
                <mxCell id="183" style="edgeStyle=none;html=1;entryX=0;entryY=0.5;entryDx=0;entryDy=0;exitX=1;exitY=0.5;exitDx=0;exitDy=0;fillColor=#FFFFFF;fontColor=#0d0c0c;strokeColor=#000000;" parent="1" source="29" target="38" edge="1">
                    <mxGeometry relative="1" as="geometry">
                        <Array as="points">
                            <mxPoint x="760" y="-440"/>
                            <mxPoint x="760" y="-370"/>
                        </Array>
                    </mxGeometry>
                </mxCell>
                <mxCell id="29" value="通信应用" style="rounded=1;whiteSpace=wrap;html=1;fillColor=#FFFFFF;strokeColor=#FF9933;fontColor=#0d0c0c;" parent="1" vertex="1">
                    <mxGeometry x="610" y="-460" width="120" height="40" as="geometry"/>
                </mxCell>
                <mxCell id="35" value="&lt;div&gt;&lt;br&gt;&lt;/div&gt;&lt;div&gt;WebSockets&lt;/div&gt;&lt;div&gt;&lt;br&gt;&lt;/div&gt;" style="rounded=1;whiteSpace=wrap;html=1;fillColor=#FFFFFF;strokeColor=#FF9933;fontColor=#0d0c0c;" parent="1" vertex="1">
                    <mxGeometry x="850" y="-540" width="120" height="40" as="geometry"/>
                </mxCell>
                <mxCell id="36" value="&lt;div&gt;&lt;br&gt;&lt;/div&gt;&lt;div&gt;GraphQL&lt;/div&gt;&lt;div&gt;&lt;br&gt;&lt;/div&gt;" style="rounded=1;whiteSpace=wrap;html=1;fillColor=#FFFFFF;fontColor=#0d0c0c;strokeColor=#FF9933;" parent="1" vertex="1">
                    <mxGeometry x="850" y="-440" width="120" height="40" as="geometry"/>
                </mxCell>
                <mxCell id="37" value="GRPC" style="rounded=1;whiteSpace=wrap;html=1;fillColor=#FFFFFF;strokeColor=#FF9933;fontColor=#0d0c0c;" parent="1" vertex="1">
                    <mxGeometry x="850" y="-490" width="120" height="40" as="geometry"/>
                </mxCell>
                <mxCell id="38" value="&lt;div&gt;REST&lt;br&gt;&lt;/div&gt;" style="rounded=1;whiteSpace=wrap;html=1;fillColor=#FFFFFF;strokeColor=#FF9933;fontColor=#0d0c0c;" parent="1" vertex="1">
                    <mxGeometry x="850" y="-390" width="120" height="40" as="geometry"/>
                </mxCell>
                <mxCell id="42" value="WinForm" style="rounded=1;whiteSpace=wrap;html=1;fillColor=#FFFFFF;strokeColor=#E3C800;fontColor=#0d0c0c;" parent="1" vertex="1">
                    <mxGeometry x="600" y="1120" width="120" height="40" as="geometry"/>
                </mxCell>
                <mxCell id="43" value="WPF" style="rounded=1;whiteSpace=wrap;html=1;fillColor=#FFFFFF;strokeColor=#E3C800;fontColor=#0d0c0c;" parent="1" vertex="1">
                    <mxGeometry x="600" y="1200" width="120" height="40" as="geometry"/>
                </mxCell>
                <mxCell id="44" value="WinUI" style="rounded=1;whiteSpace=wrap;html=1;fillColor=#FFFFFF;strokeColor=#E3C800;fontColor=#0d0c0c;" parent="1" vertex="1">
                    <mxGeometry x="600" y="1280" width="120" height="40" as="geometry"/>
                </mxCell>
                <mxCell id="61" style="edgeStyle=none;html=1;entryX=0;entryY=0.5;entryDx=0;entryDy=0;exitX=1;exitY=0.5;exitDx=0;exitDy=0;fillColor=#FFFFFF;strokeColor=#000000;fontColor=#0d0c0c;" parent="1" source="46" target="49" edge="1">
                    <mxGeometry relative="1" as="geometry">
                        <Array as="points">
                            <mxPoint x="560" y="1500"/>
                            <mxPoint x="560" y="1420"/>
                        </Array>
                    </mxGeometry>
                </mxCell>
                <mxCell id="62" style="edgeStyle=none;html=1;exitX=1;exitY=0.5;exitDx=0;exitDy=0;entryX=0;entryY=0.5;entryDx=0;entryDy=0;fillColor=#FFFFFF;strokeColor=#000000;fontColor=#0d0c0c;" parent="1" source="46" target="48" edge="1">
                    <mxGeometry relative="1" as="geometry"/>
                </mxCell>
                <mxCell id="63" style="edgeStyle=none;html=1;exitX=1;exitY=0.5;exitDx=0;exitDy=0;entryX=0;entryY=0.5;entryDx=0;entryDy=0;fillColor=#FFFFFF;strokeColor=#000000;fontColor=#0d0c0c;" parent="1" source="46" target="50" edge="1">
                    <mxGeometry relative="1" as="geometry">
                        <Array as="points">
                            <mxPoint x="560" y="1500"/>
                            <mxPoint x="560" y="1580"/>
                        </Array>
                    </mxGeometry>
                </mxCell>
                <mxCell id="46" value="跨平台应用程序" style="rounded=1;whiteSpace=wrap;html=1;fillColor=#FFFFFF;strokeColor=#B37907;fontColor=#0d0c0c;" parent="1" vertex="1">
                    <mxGeometry x="400" y="1480" width="120" height="40" as="geometry"/>
                </mxCell>
                <mxCell id="48" value="UNO Platform" style="rounded=1;whiteSpace=wrap;html=1;fillColor=#FFFFFF;strokeColor=#B37907;fontColor=#0d0c0c;" parent="1" vertex="1">
                    <mxGeometry x="600" y="1480" width="120" height="40" as="geometry"/>
                </mxCell>
                <mxCell id="49" value=".NET MAUI" style="rounded=1;whiteSpace=wrap;html=1;fillColor=#FFFFFF;strokeColor=#B37907;fontColor=#0d0c0c;" parent="1" vertex="1">
                    <mxGeometry x="600" y="1400" width="120" height="40" as="geometry"/>
                </mxCell>
                <mxCell id="50" value="Avalonia UI" style="rounded=1;whiteSpace=wrap;html=1;fillColor=#FFFFFF;strokeColor=#B37907;fontColor=#0d0c0c;" parent="1" vertex="1">
                    <mxGeometry x="600" y="1560" width="120" height="40" as="geometry"/>
                </mxCell>
                <mxCell id="51" value="PowerArgs" style="rounded=1;whiteSpace=wrap;html=1;fillColor=#FFFFFF;strokeColor=#B37907;fontColor=#0d0c0c;" parent="1" vertex="1">
                    <mxGeometry x="600" y="1960" width="120" height="40" as="geometry"/>
                </mxCell>
                <mxCell id="52" value="System.Console" style="rounded=1;whiteSpace=wrap;html=1;fillColor=#FFFFFF;strokeColor=#B37907;fontColor=#0d0c0c;" parent="1" vertex="1">
                    <mxGeometry x="600" y="1640" width="120" height="40" as="geometry"/>
                </mxCell>
                <mxCell id="53" value="spectre.console" style="rounded=1;whiteSpace=wrap;html=1;fillColor=#FFFFFF;strokeColor=#B37907;fontColor=#0d0c0c;" parent="1" vertex="1">
                    <mxGeometry x="600" y="1720" width="120" height="40" as="geometry"/>
                </mxCell>
                <mxCell id="54" value="CommandLineParser" style="rounded=1;whiteSpace=wrap;html=1;fillColor=#FFFFFF;strokeColor=#B37907;fontColor=#0d0c0c;" parent="1" vertex="1">
                    <mxGeometry x="600" y="1800" width="120" height="40" as="geometry"/>
                </mxCell>
                <mxCell id="64" value="Colorful.Console" style="rounded=1;whiteSpace=wrap;html=1;fillColor=#FFFFFF;strokeColor=#B37907;fontColor=#0d0c0c;" parent="1" vertex="1">
                    <mxGeometry x="600" y="1880" width="120" height="40" as="geometry"/>
                </mxCell>
                <mxCell id="66" value="Docker" style="rounded=1;whiteSpace=wrap;html=1;fillColor=#FFFFFF;strokeColor=#990000;fontColor=#0d0c0c;" parent="1" vertex="1">
                    <mxGeometry x="850" y="-260" width="120" height="40" as="geometry"/>
                </mxCell>
                <mxCell id="69" value="Containerd" style="rounded=1;whiteSpace=wrap;html=1;fillColor=#FFFFFF;strokeColor=#990000;fontColor=#0d0c0c;" parent="1" vertex="1">
                    <mxGeometry x="850" y="-210" width="120" height="40" as="geometry"/>
                </mxCell>
                <mxCell id="70" value="Firecracler" style="rounded=1;whiteSpace=wrap;html=1;fillColor=#FFFFFF;strokeColor=#990000;fontColor=#0d0c0c;" parent="1" vertex="1">
                    <mxGeometry x="850" y="-110" width="120" height="40" as="geometry"/>
                </mxCell>
                <mxCell id="198" style="edgeStyle=none;html=1;entryX=0;entryY=0.5;entryDx=0;entryDy=0;exitX=1;exitY=0.5;exitDx=0;exitDy=0;fillColor=#FFFFFF;strokeColor=#000000;fontColor=#0d0c0c;" parent="1" source="71" target="66" edge="1">
                    <mxGeometry relative="1" as="geometry">
                        <Array as="points">
                            <mxPoint x="800" y="-10"/>
                            <mxPoint x="800" y="-240"/>
                        </Array>
                    </mxGeometry>
                </mxCell>
                <mxCell id="199" style="edgeStyle=none;html=1;entryX=0;entryY=0.5;entryDx=0;entryDy=0;exitX=1;exitY=0.5;exitDx=0;exitDy=0;fillColor=#FFFFFF;strokeColor=#000000;fontColor=#0d0c0c;" parent="1" source="71" target="69" edge="1">
                    <mxGeometry relative="1" as="geometry">
                        <Array as="points">
                            <mxPoint x="800" y="-10"/>
                            <mxPoint x="800" y="-190"/>
                        </Array>
                    </mxGeometry>
                </mxCell>
                <mxCell id="200" style="edgeStyle=none;html=1;entryX=0;entryY=0.5;entryDx=0;entryDy=0;fillColor=#FFFFFF;strokeColor=#000000;fontColor=#0d0c0c;" parent="1" target="77" edge="1">
                    <mxGeometry relative="1" as="geometry">
                        <mxPoint x="720" y="-10" as="sourcePoint"/>
                        <Array as="points">
                            <mxPoint x="800" y="-10"/>
                            <mxPoint x="800" y="-140"/>
                        </Array>
                    </mxGeometry>
                </mxCell>
                <mxCell id="201" style="edgeStyle=none;html=1;entryX=0;entryY=0.5;entryDx=0;entryDy=0;exitX=1;exitY=0.5;exitDx=0;exitDy=0;fillColor=#FFFFFF;strokeColor=#000000;fontColor=#0d0c0c;" parent="1" source="71" target="70" edge="1">
                    <mxGeometry relative="1" as="geometry">
                        <Array as="points">
                            <mxPoint x="800" y="-10"/>
                            <mxPoint x="800" y="-90"/>
                        </Array>
                    </mxGeometry>
                </mxCell>
                <mxCell id="202" style="edgeStyle=none;html=1;entryX=0;entryY=0.5;entryDx=0;entryDy=0;exitX=1;exitY=0.5;exitDx=0;exitDy=0;fillColor=#FFFFFF;strokeColor=#000000;fontColor=#0d0c0c;" parent="1" source="71" target="72" edge="1">
                    <mxGeometry relative="1" as="geometry">
                        <Array as="points">
                            <mxPoint x="800" y="-10"/>
                            <mxPoint x="800" y="-30"/>
                        </Array>
                    </mxGeometry>
                </mxCell>
                <mxCell id="203" style="edgeStyle=none;html=1;entryX=0;entryY=0.5;entryDx=0;entryDy=0;exitX=1;exitY=0.5;exitDx=0;exitDy=0;fillColor=#FFFFFF;strokeColor=#000000;fontColor=#0d0c0c;" parent="1" source="71" target="73" edge="1">
                    <mxGeometry relative="1" as="geometry">
                        <Array as="points">
                            <mxPoint x="800" y="-10"/>
                            <mxPoint x="800" y="30"/>
                        </Array>
                    </mxGeometry>
                </mxCell>
                <mxCell id="204" style="edgeStyle=none;html=1;entryX=0;entryY=0.5;entryDx=0;entryDy=0;exitX=1;exitY=0.5;exitDx=0;exitDy=0;fillColor=#FFFFFF;strokeColor=#000000;fontColor=#0d0c0c;" parent="1" source="71" target="78" edge="1">
                    <mxGeometry relative="1" as="geometry">
                        <Array as="points">
                            <mxPoint x="800" y="-10"/>
                            <mxPoint x="800" y="90"/>
                        </Array>
                    </mxGeometry>
                </mxCell>
                <mxCell id="205" style="edgeStyle=none;html=1;entryX=0;entryY=0.5;entryDx=0;entryDy=0;exitX=1;exitY=0.5;exitDx=0;exitDy=0;fillColor=#FFFFFF;strokeColor=#000000;fontColor=#0d0c0c;" parent="1" source="71" target="93" edge="1">
                    <mxGeometry relative="1" as="geometry">
                        <Array as="points">
                            <mxPoint x="800" y="-10"/>
                            <mxPoint x="800" y="150"/>
                        </Array>
                    </mxGeometry>
                </mxCell>
                <mxCell id="206" style="edgeStyle=none;html=1;entryX=0;entryY=0.5;entryDx=0;entryDy=0;exitX=1;exitY=0.5;exitDx=0;exitDy=0;fillColor=#FFFFFF;strokeColor=#000000;fontColor=#0d0c0c;" parent="1" source="71" target="94" edge="1">
                    <mxGeometry relative="1" as="geometry">
                        <Array as="points">
                            <mxPoint x="800" y="-10"/>
                            <mxPoint x="800" y="210"/>
                        </Array>
                    </mxGeometry>
                </mxCell>
                <mxCell id="209" style="edgeStyle=none;html=1;entryX=0;entryY=0.5;entryDx=0;entryDy=0;exitX=1;exitY=0.5;exitDx=0;exitDy=0;fillColor=#FFFFFF;strokeColor=#000000;fontColor=#0d0c0c;" parent="1" source="71" target="188" edge="1">
                    <mxGeometry relative="1" as="geometry">
                        <Array as="points">
                            <mxPoint x="800" y="-10"/>
                            <mxPoint x="800" y="270"/>
                        </Array>
                    </mxGeometry>
                </mxCell>
                <mxCell id="71" value="容器" style="rounded=1;whiteSpace=wrap;html=1;fillColor=#FFFFFF;strokeColor=#990000;fontColor=#0d0c0c;" parent="1" vertex="1">
                    <mxGeometry x="600" y="-30" width="120" height="40" as="geometry"/>
                </mxCell>
                <mxCell id="72" value="gVisor" style="rounded=1;whiteSpace=wrap;html=1;fillColor=#FFFFFF;strokeColor=#990000;fontColor=#0d0c0c;" parent="1" vertex="1">
                    <mxGeometry x="850" y="-50" width="120" height="40" as="geometry"/>
                </mxCell>
                <mxCell id="73" value="Kata" style="rounded=1;whiteSpace=wrap;html=1;fillColor=#FFFFFF;strokeColor=#990000;fontColor=#0d0c0c;" parent="1" vertex="1">
                    <mxGeometry x="850" y="10" width="120" height="40" as="geometry"/>
                </mxCell>
                <mxCell id="77" value="CRI-O" style="rounded=1;whiteSpace=wrap;html=1;fillColor=#FFFFFF;strokeColor=#990000;fontColor=#0d0c0c;" parent="1" vertex="1">
                    <mxGeometry x="850" y="-160" width="120" height="40" as="geometry"/>
                </mxCell>
                <mxCell id="78" value="Lima" style="rounded=1;whiteSpace=wrap;html=1;fillColor=#FFFFFF;strokeColor=#990000;fontColor=#0d0c0c;" parent="1" vertex="1">
                    <mxGeometry x="850" y="70" width="120" height="40" as="geometry"/>
                </mxCell>
                <mxCell id="210" style="edgeStyle=none;html=1;entryX=0;entryY=0.5;entryDx=0;entryDy=0;exitX=1;exitY=0.5;exitDx=0;exitDy=0;fillColor=#FFFFFF;strokeColor=#000000;fontColor=#0d0c0c;" parent="1" source="82" target="195" edge="1">
                    <mxGeometry relative="1" as="geometry">
                        <Array as="points">
                            <mxPoint x="770" y="650"/>
                            <mxPoint x="770" y="340"/>
                        </Array>
                    </mxGeometry>
                </mxCell>
                <mxCell id="211" style="edgeStyle=none;html=1;entryX=0;entryY=0.5;entryDx=0;entryDy=0;fillColor=#FFFFFF;strokeColor=#000000;fontColor=#0d0c0c;" parent="1" target="91" edge="1">
                    <mxGeometry relative="1" as="geometry">
                        <mxPoint x="720" y="650" as="sourcePoint"/>
                        <Array as="points">
                            <mxPoint x="770" y="650"/>
                            <mxPoint x="770" y="400"/>
                        </Array>
                    </mxGeometry>
                </mxCell>
                <mxCell id="212" style="edgeStyle=none;html=1;entryX=0;entryY=0.5;entryDx=0;entryDy=0;exitX=1;exitY=0.5;exitDx=0;exitDy=0;fillColor=#FFFFFF;strokeColor=#000000;fontColor=#0d0c0c;" parent="1" source="82" target="90" edge="1">
                    <mxGeometry relative="1" as="geometry">
                        <Array as="points">
                            <mxPoint x="770" y="650"/>
                            <mxPoint x="770" y="460"/>
                        </Array>
                    </mxGeometry>
                </mxCell>
                <mxCell id="213" style="edgeStyle=none;html=1;entryX=0;entryY=0.5;entryDx=0;entryDy=0;exitX=1;exitY=0.5;exitDx=0;exitDy=0;fillColor=#FFFFFF;strokeColor=#000000;fontColor=#0d0c0c;" parent="1" source="82" target="88" edge="1">
                    <mxGeometry relative="1" as="geometry">
                        <Array as="points">
                            <mxPoint x="770" y="650"/>
                            <mxPoint x="770" y="520"/>
                        </Array>
                    </mxGeometry>
                </mxCell>
                <mxCell id="214" style="edgeStyle=none;html=1;entryX=0;entryY=0.5;entryDx=0;entryDy=0;exitX=1;exitY=0.5;exitDx=0;exitDy=0;fillColor=#FFFFFF;strokeColor=#000000;fontColor=#0d0c0c;" parent="1" source="82" target="89" edge="1">
                    <mxGeometry relative="1" as="geometry">
                        <Array as="points">
                            <mxPoint x="770" y="650"/>
                            <mxPoint x="770" y="580"/>
                        </Array>
                    </mxGeometry>
                </mxCell>
                <mxCell id="215" style="edgeStyle=none;html=1;entryX=0;entryY=0.5;entryDx=0;entryDy=0;fillColor=#FFFFFF;strokeColor=#000000;fontColor=#0d0c0c;" parent="1" source="82" target="85" edge="1">
                    <mxGeometry relative="1" as="geometry"/>
                </mxCell>
                <mxCell id="216" style="edgeStyle=none;html=1;entryX=0;entryY=0.5;entryDx=0;entryDy=0;exitX=1;exitY=0.5;exitDx=0;exitDy=0;fillColor=#FFFFFF;strokeColor=#000000;fontColor=#0d0c0c;" parent="1" source="82" target="83" edge="1">
                    <mxGeometry relative="1" as="geometry">
                        <Array as="points">
                            <mxPoint x="770" y="650"/>
                            <mxPoint x="770" y="720"/>
                        </Array>
                    </mxGeometry>
                </mxCell>
                <mxCell id="217" style="edgeStyle=none;html=1;entryX=0;entryY=0.5;entryDx=0;entryDy=0;exitX=1;exitY=0.5;exitDx=0;exitDy=0;fillColor=#FFFFFF;strokeColor=#000000;fontColor=#0d0c0c;" parent="1" source="82" target="87" edge="1">
                    <mxGeometry relative="1" as="geometry">
                        <Array as="points">
                            <mxPoint x="770" y="650"/>
                            <mxPoint x="770" y="780"/>
                        </Array>
                    </mxGeometry>
                </mxCell>
                <mxCell id="218" style="edgeStyle=none;html=1;entryX=0;entryY=0.5;entryDx=0;entryDy=0;exitX=1;exitY=0.5;exitDx=0;exitDy=0;fillColor=#FFFFFF;strokeColor=#000000;fontColor=#0d0c0c;" parent="1" source="82" target="86" edge="1">
                    <mxGeometry relative="1" as="geometry">
                        <Array as="points">
                            <mxPoint x="770" y="650"/>
                            <mxPoint x="770" y="840"/>
                        </Array>
                    </mxGeometry>
                </mxCell>
                <mxCell id="219" style="edgeStyle=none;html=1;entryX=0;entryY=0.5;entryDx=0;entryDy=0;fillColor=#FFFFFF;strokeColor=#000000;fontColor=#0d0c0c;" parent="1" target="84" edge="1">
                    <mxGeometry relative="1" as="geometry">
                        <mxPoint x="720" y="650" as="sourcePoint"/>
                        <Array as="points">
                            <mxPoint x="770" y="650"/>
                            <mxPoint x="770" y="900"/>
                        </Array>
                    </mxGeometry>
                </mxCell>
                <mxCell id="220" style="edgeStyle=none;html=1;entryX=0;entryY=0.5;entryDx=0;entryDy=0;exitX=1;exitY=0.5;exitDx=0;exitDy=0;fillColor=#FFFFFF;strokeColor=#000000;fontColor=#0d0c0c;" parent="1" source="82" target="191" edge="1">
                    <mxGeometry relative="1" as="geometry">
                        <Array as="points">
                            <mxPoint x="770" y="650"/>
                            <mxPoint x="770" y="958"/>
                        </Array>
                    </mxGeometry>
                </mxCell>
                <mxCell id="221" style="edgeStyle=none;html=1;entryX=0;entryY=0.5;entryDx=0;entryDy=0;exitX=1;exitY=0.5;exitDx=0;exitDy=0;fillColor=#FFFFFF;strokeColor=#000000;fontColor=#0d0c0c;" parent="1" source="82" target="192" edge="1">
                    <mxGeometry relative="1" as="geometry">
                        <Array as="points">
                            <mxPoint x="770" y="650"/>
                            <mxPoint x="770" y="1020"/>
                        </Array>
                    </mxGeometry>
                </mxCell>
                <mxCell id="222" style="edgeStyle=none;html=1;entryX=0;entryY=0.5;entryDx=0;entryDy=0;fillColor=#FFFFFF;strokeColor=#000000;fontColor=#0d0c0c;" parent="1" target="194" edge="1">
                    <mxGeometry relative="1" as="geometry">
                        <mxPoint x="720" y="650" as="sourcePoint"/>
                        <Array as="points">
                            <mxPoint x="770" y="650"/>
                            <mxPoint x="770" y="1080"/>
                        </Array>
                    </mxGeometry>
                </mxCell>
                <mxCell id="82" value="容器编排" style="rounded=1;whiteSpace=wrap;html=1;fillColor=#FFFFFF;strokeColor=#990000;fontColor=#0d0c0c;" parent="1" vertex="1">
                    <mxGeometry x="600" y="630" width="120" height="40" as="geometry"/>
                </mxCell>
                <mxCell id="83" value="Marathon" style="rounded=1;whiteSpace=wrap;html=1;fillColor=#FFFFFF;strokeColor=#990000;fontColor=#0d0c0c;" parent="1" vertex="1">
                    <mxGeometry x="840" y="700" width="120" height="40" as="geometry"/>
                </mxCell>
                <mxCell id="84" value="Containership" style="rounded=1;whiteSpace=wrap;html=1;fillColor=#FFFFFF;strokeColor=#990000;fontColor=#0d0c0c;" parent="1" vertex="1">
                    <mxGeometry x="840" y="878" width="120" height="40" as="geometry"/>
                </mxCell>
                <mxCell id="85" value="Minikube" style="rounded=1;whiteSpace=wrap;html=1;fillColor=#FFFFFF;strokeColor=#990000;fontColor=#0d0c0c;" parent="1" vertex="1">
                    <mxGeometry x="840" y="630" width="120" height="40" as="geometry"/>
                </mxCell>
                <mxCell id="86" value="Rancher" style="rounded=1;whiteSpace=wrap;html=1;fillColor=#FFFFFF;strokeColor=#990000;fontColor=#0d0c0c;" parent="1" vertex="1">
                    <mxGeometry x="840" y="820" width="120" height="40" as="geometry"/>
                </mxCell>
                <mxCell id="87" value="Cloudify" style="rounded=1;whiteSpace=wrap;html=1;fillColor=#FFFFFF;strokeColor=#990000;fontColor=#0d0c0c;" parent="1" vertex="1">
                    <mxGeometry x="840" y="760" width="120" height="40" as="geometry"/>
                </mxCell>
                <mxCell id="88" value="Docker Swarm" style="rounded=1;whiteSpace=wrap;html=1;fillColor=#FFFFFF;strokeColor=#990000;fontColor=#0d0c0c;" parent="1" vertex="1">
                    <mxGeometry x="840" y="500" width="120" height="40" as="geometry"/>
                </mxCell>
                <mxCell id="89" value="Docker Compose" style="rounded=1;whiteSpace=wrap;html=1;fillColor=#FFFFFF;strokeColor=#990000;fontColor=#0d0c0c;" parent="1" vertex="1">
                    <mxGeometry x="840" y="560" width="120" height="40" as="geometry"/>
                </mxCell>
                <mxCell id="90" value="Nomad" style="rounded=1;whiteSpace=wrap;html=1;fillColor=#FFFFFF;strokeColor=#990000;fontColor=#0d0c0c;" parent="1" vertex="1">
                    <mxGeometry x="840" y="440" width="120" height="40" as="geometry"/>
                </mxCell>
                <mxCell id="91" value="OpenShift" style="rounded=1;whiteSpace=wrap;html=1;fillColor=#FFFFFF;strokeColor=#990000;fontColor=#0d0c0c;" parent="1" vertex="1">
                    <mxGeometry x="840" y="380" width="120" height="40" as="geometry"/>
                </mxCell>
                <mxCell id="93" value="Lxd" style="rounded=1;whiteSpace=wrap;html=1;fillColor=#FFFFFF;strokeColor=#990000;fontColor=#0d0c0c;" parent="1" vertex="1">
                    <mxGeometry x="850" y="130" width="120" height="40" as="geometry"/>
                </mxCell>
                <mxCell id="94" value="rkt" style="rounded=1;whiteSpace=wrap;html=1;fillColor=#FFFFFF;strokeColor=#990000;fontColor=#0d0c0c;" parent="1" vertex="1">
                    <mxGeometry x="850" y="190" width="120" height="40" as="geometry"/>
                </mxCell>
                <mxCell id="96" value="&lt;div style=&quot;text-align: left;&quot;&gt;&lt;font face=&quot;-apple-system, BlinkMacSystemFont, Segoe UI, Noto Sans, Helvetica, Arial, sans-serif, Apple Color Emoji, Segoe UI Emoji&quot;&gt;&lt;span style=&quot;font-size: 16px;&quot;&gt;.NET&amp;nbsp;&lt;/span&gt;&lt;/font&gt;&lt;/div&gt;&lt;div style=&quot;text-align: left;&quot;&gt;&lt;font face=&quot;-apple-system, BlinkMacSystemFont, Segoe UI, Noto Sans, Helvetica, Arial, sans-serif, Apple Color Emoji, Segoe UI Emoji&quot;&gt;&lt;span style=&quot;font-size: 16px;&quot;&gt;nanoFramework&lt;/span&gt;&lt;br&gt;&lt;/font&gt;&lt;/div&gt;" style="rounded=1;whiteSpace=wrap;html=1;fillColor=#FFFFFF;strokeColor=#FF3333;fontColor=#0d0c0c;" parent="1" vertex="1">
                    <mxGeometry x="-80" y="-720" width="120" height="40" as="geometry"/>
                </mxCell>
                <mxCell id="97" value="Meadow" style="rounded=1;whiteSpace=wrap;html=1;fillColor=#FFFFFF;strokeColor=#FF3333;fontColor=#0d0c0c;" parent="1" vertex="1">
                    <mxGeometry x="-80" y="-649" width="120" height="40" as="geometry"/>
                </mxCell>
                <mxCell id="98" value="IoTSharp" style="rounded=1;whiteSpace=wrap;html=1;fillColor=#FFFFFF;strokeColor=#FF3333;fontColor=#0d0c0c;" parent="1" vertex="1">
                    <mxGeometry x="-80" y="-590" width="120" height="40" as="geometry"/>
                </mxCell>
                <mxCell id="99" value="MQTTnet" style="rounded=1;whiteSpace=wrap;html=1;fillColor=#FFFFFF;strokeColor=#FF3333;fontColor=#0d0c0c;" parent="1" vertex="1">
                    <mxGeometry x="-80" y="-520" width="120" height="40" as="geometry"/>
                </mxCell>
                <mxCell id="101" value="Device.Net" style="rounded=1;whiteSpace=wrap;html=1;fillColor=#FFFFFF;strokeColor=#FF3333;fontColor=#0d0c0c;" parent="1" vertex="1">
                    <mxGeometry x="-80" y="-460" width="120" height="40" as="geometry"/>
                </mxCell>
                <mxCell id="252" style="edgeStyle=none;html=1;entryX=1;entryY=0.5;entryDx=0;entryDy=0;exitX=0;exitY=0.5;exitDx=0;exitDy=0;fillColor=#FFFFFF;strokeColor=#000000;fontColor=#0d0c0c;" parent="1" source="102" target="244" edge="1">
                    <mxGeometry relative="1" as="geometry">
                        <Array as="points">
                            <mxPoint x="-120" y="-260"/>
                            <mxPoint x="-120" y="-420"/>
                        </Array>
                    </mxGeometry>
                </mxCell>
                <mxCell id="253" style="edgeStyle=none;html=1;entryX=1;entryY=0.5;entryDx=0;entryDy=0;exitX=0;exitY=0.5;exitDx=0;exitDy=0;fillColor=#FFFFFF;strokeColor=#000000;fontColor=#0d0c0c;" parent="1" source="102" target="245" edge="1">
                    <mxGeometry relative="1" as="geometry">
                        <Array as="points">
                            <mxPoint x="-120" y="-260"/>
                            <mxPoint x="-120" y="-360"/>
                        </Array>
                    </mxGeometry>
                </mxCell>
                <mxCell id="254" style="edgeStyle=none;html=1;entryX=1;entryY=0.5;entryDx=0;entryDy=0;exitX=0;exitY=0.5;exitDx=0;exitDy=0;fillColor=#FFFFFF;strokeColor=#000000;fontColor=#0d0c0c;" parent="1" source="102" target="246" edge="1">
                    <mxGeometry relative="1" as="geometry">
                        <Array as="points">
                            <mxPoint x="-120" y="-260"/>
                            <mxPoint x="-120" y="-300"/>
                        </Array>
                    </mxGeometry>
                </mxCell>
                <mxCell id="255" style="edgeStyle=none;html=1;entryX=0.917;entryY=0.5;entryDx=0;entryDy=0;entryPerimeter=0;exitX=0;exitY=0.5;exitDx=0;exitDy=0;fillColor=#FFFFFF;strokeColor=#000000;fontColor=#0d0c0c;" parent="1" source="102" target="247" edge="1">
                    <mxGeometry relative="1" as="geometry">
                        <Array as="points">
                            <mxPoint x="-120" y="-260"/>
                            <mxPoint x="-120" y="-240"/>
                        </Array>
                    </mxGeometry>
                </mxCell>
                <mxCell id="256" style="edgeStyle=none;html=1;entryX=1;entryY=0.5;entryDx=0;entryDy=0;exitX=0;exitY=0.5;exitDx=0;exitDy=0;fillColor=#FFFFFF;strokeColor=#000000;fontColor=#0d0c0c;" parent="1" source="102" target="248" edge="1">
                    <mxGeometry relative="1" as="geometry">
                        <Array as="points">
                            <mxPoint x="-120" y="-260"/>
                            <mxPoint x="-120" y="-180"/>
                        </Array>
                    </mxGeometry>
                </mxCell>
                <mxCell id="257" style="edgeStyle=none;html=1;entryX=1;entryY=0.5;entryDx=0;entryDy=0;exitX=0;exitY=0.5;exitDx=0;exitDy=0;fillColor=#FFFFFF;strokeColor=#000000;fontColor=#0d0c0c;" parent="1" source="102" target="250" edge="1">
                    <mxGeometry relative="1" as="geometry">
                        <Array as="points">
                            <mxPoint x="-120" y="-260"/>
                            <mxPoint x="-120" y="-120"/>
                        </Array>
                    </mxGeometry>
                </mxCell>
                <mxCell id="102" value="关系型数据库" style="rounded=1;whiteSpace=wrap;html=1;fillColor=#FFFFFF;strokeColor=#00CC00;fontColor=#0d0c0c;" parent="1" vertex="1">
                    <mxGeometry x="-80" y="-280" width="120" height="40" as="geometry"/>
                </mxCell>
                <mxCell id="260" style="edgeStyle=none;html=1;entryX=1;entryY=0.5;entryDx=0;entryDy=0;exitX=0;exitY=0.5;exitDx=0;exitDy=0;fillColor=#FFFFFF;strokeColor=#000000;fontColor=#0d0c0c;" parent="1" source="103" target="258" edge="1">
                    <mxGeometry relative="1" as="geometry">
                        <Array as="points">
                            <mxPoint x="-120" y="-20"/>
                            <mxPoint x="-120" y="-60"/>
                        </Array>
                    </mxGeometry>
                </mxCell>
                <mxCell id="261" style="edgeStyle=none;html=1;entryX=1;entryY=0.5;entryDx=0;entryDy=0;exitX=0;exitY=0.5;exitDx=0;exitDy=0;fillColor=#FFFFFF;strokeColor=#000000;fontColor=#0d0c0c;" parent="1" source="103" target="259" edge="1">
                    <mxGeometry relative="1" as="geometry">
                        <Array as="points">
                            <mxPoint x="-120" y="-20"/>
                            <mxPoint x="-120" y="10"/>
                        </Array>
                    </mxGeometry>
                </mxCell>
                <mxCell id="103" value="非关系型数据库" style="rounded=1;whiteSpace=wrap;html=1;fillColor=#FFFFFF;strokeColor=#00CC00;fontColor=#0d0c0c;" parent="1" vertex="1">
                    <mxGeometry x="-80" y="-40" width="120" height="40" as="geometry"/>
                </mxCell>
                <mxCell id="271" style="edgeStyle=none;html=1;entryX=1;entryY=0.5;entryDx=0;entryDy=0;exitX=0;exitY=0.5;exitDx=0;exitDy=0;fillColor=#FFFFFF;strokeColor=#000000;fontColor=#0d0c0c;" parent="1" source="105" target="263" edge="1">
                    <mxGeometry relative="1" as="geometry">
                        <Array as="points">
                            <mxPoint x="-120" y="230"/>
                            <mxPoint x="-120" y="130"/>
                        </Array>
                    </mxGeometry>
                </mxCell>
                <mxCell id="272" style="edgeStyle=none;html=1;entryX=1;entryY=0.5;entryDx=0;entryDy=0;exitX=0;exitY=0.5;exitDx=0;exitDy=0;fillColor=#FFFFFF;strokeColor=#000000;fontColor=#0d0c0c;" parent="1" source="105" target="264" edge="1">
                    <mxGeometry relative="1" as="geometry">
                        <Array as="points">
                            <mxPoint x="-120" y="230"/>
                            <mxPoint x="-120" y="180"/>
                        </Array>
                    </mxGeometry>
                </mxCell>
                <mxCell id="273" style="edgeStyle=none;html=1;entryX=1;entryY=0.5;entryDx=0;entryDy=0;exitX=0;exitY=0.5;exitDx=0;exitDy=0;fillColor=#FFFFFF;strokeColor=#000000;fontColor=#0d0c0c;" parent="1" source="105" target="265" edge="1">
                    <mxGeometry relative="1" as="geometry"/>
                </mxCell>
                <mxCell id="274" style="edgeStyle=none;html=1;entryX=1;entryY=0.5;entryDx=0;entryDy=0;exitX=0;exitY=0.5;exitDx=0;exitDy=0;fillColor=#FFFFFF;strokeColor=#000000;fontColor=#0d0c0c;" parent="1" source="105" target="266" edge="1">
                    <mxGeometry relative="1" as="geometry">
                        <Array as="points">
                            <mxPoint x="-120" y="230"/>
                            <mxPoint x="-120" y="300"/>
                        </Array>
                    </mxGeometry>
                </mxCell>
                <mxCell id="275" style="edgeStyle=none;html=1;entryX=1;entryY=0.5;entryDx=0;entryDy=0;exitX=0;exitY=0.5;exitDx=0;exitDy=0;fillColor=#FFFFFF;strokeColor=#000000;fontColor=#0d0c0c;" parent="1" source="105" target="267" edge="1">
                    <mxGeometry relative="1" as="geometry">
                        <Array as="points">
                            <mxPoint x="-120" y="230"/>
                            <mxPoint x="-120" y="360"/>
                        </Array>
                    </mxGeometry>
                </mxCell>
                <mxCell id="276" style="edgeStyle=none;html=1;entryX=1;entryY=0.5;entryDx=0;entryDy=0;exitX=0;exitY=0.5;exitDx=0;exitDy=0;fillColor=#FFFFFF;strokeColor=#000000;fontColor=#0d0c0c;" parent="1" source="105" target="269" edge="1">
                    <mxGeometry relative="1" as="geometry">
                        <Array as="points">
                            <mxPoint x="-120" y="230"/>
                            <mxPoint x="-120" y="420"/>
                        </Array>
                    </mxGeometry>
                </mxCell>
                <mxCell id="277" style="edgeStyle=none;html=1;entryX=1;entryY=0.5;entryDx=0;entryDy=0;exitX=0;exitY=0.5;exitDx=0;exitDy=0;fillColor=#FFFFFF;strokeColor=#000000;fontColor=#0d0c0c;" parent="1" source="105" target="268" edge="1">
                    <mxGeometry relative="1" as="geometry">
                        <Array as="points">
                            <mxPoint x="-120" y="230"/>
                            <mxPoint x="-120" y="480"/>
                        </Array>
                    </mxGeometry>
                </mxCell>
                <mxCell id="278" style="edgeStyle=none;html=1;entryX=1;entryY=0.5;entryDx=0;entryDy=0;exitX=0;exitY=0.5;exitDx=0;exitDy=0;fillColor=#FFFFFF;strokeColor=#000000;fontColor=#0d0c0c;" parent="1" source="105" target="262" edge="1">
                    <mxGeometry relative="1" as="geometry">
                        <Array as="points">
                            <mxPoint x="-120" y="230"/>
                            <mxPoint x="-120" y="70"/>
                        </Array>
                    </mxGeometry>
                </mxCell>
                <mxCell id="105" value="ORM 框架" style="rounded=1;whiteSpace=wrap;html=1;fillColor=#FFFFFF;strokeColor=#00CC00;fontColor=#0d0c0c;" parent="1" vertex="1">
                    <mxGeometry x="-80" y="210" width="120" height="40" as="geometry"/>
                </mxCell>
                <mxCell id="108" value="ML.NET" style="rounded=1;whiteSpace=wrap;html=1;fillColor=#FFFFFF;strokeColor=#0050EF;fontColor=#0d0c0c;" parent="1" vertex="1">
                    <mxGeometry x="-80" y="440" width="120" height="40" as="geometry"/>
                </mxCell>
                <mxCell id="109" value="TensorFlow.NET" style="rounded=1;whiteSpace=wrap;html=1;fillColor=#FFFFFF;strokeColor=#0050EF;fontColor=#0d0c0c;" parent="1" vertex="1">
                    <mxGeometry x="-80" y="510" width="120" height="40" as="geometry"/>
                </mxCell>
                <mxCell id="110" value="CNTK (Microsoft Cognitive Toolkit)" style="rounded=1;whiteSpace=wrap;html=1;fillColor=#FFFFFF;strokeColor=#0050EF;fontColor=#0d0c0c;" parent="1" vertex="1">
                    <mxGeometry x="-80" y="770" width="120" height="40" as="geometry"/>
                </mxCell>
                <mxCell id="111" value="BotSharp" style="rounded=1;whiteSpace=wrap;html=1;fillColor=#FFFFFF;strokeColor=#0050EF;fontColor=#0d0c0c;" parent="1" vertex="1">
                    <mxGeometry x="-80" y="590" width="120" height="40" as="geometry"/>
                </mxCell>
                <mxCell id="112" value="Unity" style="rounded=1;whiteSpace=wrap;html=1;fillColor=#FFFFFF;strokeColor=#00994D;fontColor=#0d0c0c;shadow=0;" parent="1" vertex="1">
                    <mxGeometry x="-40" y="1240" width="120" height="40" as="geometry"/>
                </mxCell>
                <mxCell id="113" value="Godot" style="rounded=1;whiteSpace=wrap;html=1;fillColor=#FFFFFF;strokeColor=#00994D;fontColor=#0d0c0c;shadow=0;" parent="1" vertex="1">
                    <mxGeometry x="-40" y="1320" width="120" height="40" as="geometry"/>
                </mxCell>
                <mxCell id="114" value="Flax Engine" style="rounded=1;whiteSpace=wrap;html=1;fillColor=#FFFFFF;strokeColor=#00994D;fontColor=#0d0c0c;shadow=0;" parent="1" vertex="1">
                    <mxGeometry x="-40" y="1640" width="120" height="40" as="geometry"/>
                </mxCell>
                <mxCell id="115" value="CryEngine" style="rounded=1;whiteSpace=wrap;html=1;fillColor=#FFFFFF;strokeColor=#00994D;fontColor=#0d0c0c;shadow=0;" parent="1" vertex="1">
                    <mxGeometry x="-40" y="1400" width="120" height="40" as="geometry"/>
                </mxCell>
                <mxCell id="116" value="Stride" style="rounded=1;whiteSpace=wrap;html=1;fillColor=#FFFFFF;strokeColor=#00994D;fontColor=#0d0c0c;shadow=0;" parent="1" vertex="1">
                    <mxGeometry x="-40" y="1480" width="120" height="40" as="geometry"/>
                </mxCell>
                <mxCell id="117" value="MonoGame" style="rounded=1;whiteSpace=wrap;html=1;fillColor=#FFFFFF;strokeColor=#00994D;fontColor=#0d0c0c;shadow=0;" parent="1" vertex="1">
                    <mxGeometry x="-40" y="1560" width="120" height="40" as="geometry"/>
                </mxCell>
                <mxCell id="118" value="evergine" style="rounded=1;whiteSpace=wrap;html=1;fillColor=#FFFFFF;strokeColor=#00994D;fontColor=#0d0c0c;shadow=0;" parent="1" vertex="1">
                    <mxGeometry x="-40" y="1800" width="120" height="40" as="geometry"/>
                </mxCell>
                <mxCell id="120" value="FlatRedBall" style="rounded=1;whiteSpace=wrap;html=1;fillColor=#FFFFFF;strokeColor=#00994D;fontColor=#0d0c0c;shadow=0;" parent="1" vertex="1">
                    <mxGeometry x="-40" y="1720" width="120" height="40" as="geometry"/>
                </mxCell>
                <mxCell id="121" value="rbfx" style="rounded=1;whiteSpace=wrap;html=1;fillColor=#FFFFFF;strokeColor=#00994D;fontColor=#0d0c0c;shadow=0;" parent="1" vertex="1">
                    <mxGeometry x="-40" y="1880" width="120" height="40" as="geometry"/>
                </mxCell>
                <mxCell id="122" value="BotSharp" style="rounded=1;whiteSpace=wrap;html=1;fillColor=#FFFFFF;strokeColor=#0050EF;fontColor=#0d0c0c;" parent="1" vertex="1">
                    <mxGeometry x="-80" y="670" width="120" height="40" as="geometry"/>
                </mxCell>
                <mxCell id="163" value="" style="endArrow=classic;html=1;entryX=0;entryY=0.5;entryDx=0;entryDy=0;fillColor=#FFFFFF;strokeColor=#000000;fontColor=#0d0c0c;" parent="1" target="3" edge="1">
                    <mxGeometry width="50" height="50" relative="1" as="geometry">
                        <mxPoint x="360" y="-540" as="sourcePoint"/>
                        <mxPoint x="410" y="-490" as="targetPoint"/>
                    </mxGeometry>
                </mxCell>
                <mxCell id="170" value="&lt;div&gt;&lt;br&gt;&lt;/div&gt;&lt;div&gt;WebSockets&lt;/div&gt;&lt;div&gt;&lt;br&gt;&lt;/div&gt;" style="rounded=1;whiteSpace=wrap;html=1;fillColor=#FFFFFF;strokeColor=#FA6800;fontColor=#0d0c0c;" parent="1" vertex="1">
                    <mxGeometry x="850" y="-759" width="120" height="40" as="geometry"/>
                </mxCell>
                <mxCell id="171" value="&lt;div&gt;&lt;br&gt;&lt;/div&gt;&lt;div&gt;WebSockets&lt;/div&gt;&lt;div&gt;&lt;br&gt;&lt;/div&gt;" style="rounded=1;whiteSpace=wrap;html=1;fillColor=#FFFFFF;strokeColor=#FF9933;fontColor=#0d0c0c;" parent="1" vertex="1">
                    <mxGeometry x="850" y="-709" width="120" height="40" as="geometry"/>
                </mxCell>
                <mxCell id="172" value="&lt;div&gt;&lt;br&gt;&lt;/div&gt;&lt;div&gt;WebSockets&lt;/div&gt;&lt;div&gt;&lt;br&gt;&lt;/div&gt;" style="rounded=1;whiteSpace=wrap;html=1;fillColor=#FFFFFF;strokeColor=#FF9933;fontColor=#0d0c0c;" parent="1" vertex="1">
                    <mxGeometry x="850" y="-659" width="120" height="40" as="geometry"/>
                </mxCell>
                <mxCell id="173" value="&lt;div&gt;&lt;br&gt;&lt;/div&gt;&lt;div&gt;WebSockets&lt;/div&gt;&lt;div&gt;&lt;br&gt;&lt;/div&gt;" style="rounded=1;whiteSpace=wrap;html=1;fillColor=#FFFFFF;strokeColor=#FF9933;fontColor=#0d0c0c;" parent="1" vertex="1">
                    <mxGeometry x="850" y="-609" width="120" height="40" as="geometry"/>
                </mxCell>
                <mxCell id="184" value="" style="endArrow=classic;html=1;fillColor=#FFFFFF;strokeColor=#000000;fontColor=#0d0c0c;" parent="1" target="6" edge="1">
                    <mxGeometry width="50" height="50" relative="1" as="geometry">
                        <mxPoint x="360" y="260" as="sourcePoint"/>
                        <mxPoint x="590" y="-280" as="targetPoint"/>
                    </mxGeometry>
                </mxCell>
                <mxCell id="188" value="runC" style="rounded=1;whiteSpace=wrap;html=1;fillColor=#FFFFFF;strokeColor=#990000;fontColor=#0d0c0c;" parent="1" vertex="1">
                    <mxGeometry x="850" y="250" width="120" height="40" as="geometry"/>
                </mxCell>
                <mxCell id="191" value="AWS EKS" style="rounded=1;whiteSpace=wrap;html=1;fillColor=#FFFFFF;strokeColor=#990000;fontColor=#0d0c0c;" parent="1" vertex="1">
                    <mxGeometry x="840" y="938" width="120" height="40" as="geometry"/>
                </mxCell>
                <mxCell id="192" value="GKE" style="rounded=1;whiteSpace=wrap;html=1;fillColor=#FFFFFF;strokeColor=#990000;fontColor=#0d0c0c;" parent="1" vertex="1">
                    <mxGeometry x="840" y="998" width="120" height="40" as="geometry"/>
                </mxCell>
                <mxCell id="194" value="AKS" style="rounded=1;whiteSpace=wrap;html=1;fillColor=#FFFFFF;strokeColor=#990000;fontColor=#0d0c0c;" parent="1" vertex="1">
                    <mxGeometry x="840" y="1060" width="120" height="40" as="geometry"/>
                </mxCell>
                <mxCell id="195" value="Kubernetes" style="rounded=1;whiteSpace=wrap;html=1;fillColor=#FFFFFF;strokeColor=#990000;fontColor=#0d0c0c;" parent="1" vertex="1">
                    <mxGeometry x="840" y="320" width="120" height="40" as="geometry"/>
                </mxCell>
                <mxCell id="223" value="" style="endArrow=classic;html=1;entryX=0;entryY=0.5;entryDx=0;entryDy=0;fillColor=#FFFFFF;strokeColor=#000000;fontColor=#0d0c0c;" parent="1" target="8" edge="1">
                    <mxGeometry width="50" height="50" relative="1" as="geometry">
                        <mxPoint x="360" y="1220" as="sourcePoint"/>
                        <mxPoint x="770" y="1050" as="targetPoint"/>
                    </mxGeometry>
                </mxCell>
                <mxCell id="229" value="" style="endArrow=classic;html=1;fillColor=#FFFFFF;strokeColor=#000000;fontColor=#0d0c0c;" parent="1" target="46" edge="1">
                    <mxGeometry width="50" height="50" relative="1" as="geometry">
                        <mxPoint x="360" y="1500" as="sourcePoint"/>
                        <mxPoint x="850" y="1350" as="targetPoint"/>
                    </mxGeometry>
                </mxCell>
                <mxCell id="230" value="" style="endArrow=classic;html=1;entryX=0;entryY=0.5;entryDx=0;entryDy=0;fillColor=#FFFFFF;strokeColor=#000000;fontColor=#0d0c0c;" parent="1" target="18" edge="1">
                    <mxGeometry width="50" height="50" relative="1" as="geometry">
                        <mxPoint x="360" y="1820" as="sourcePoint"/>
                        <mxPoint x="850" y="1730" as="targetPoint"/>
                    </mxGeometry>
                </mxCell>
                <mxCell id="236" value="" style="endArrow=classic;html=1;entryX=1;entryY=0.5;entryDx=0;entryDy=0;fillColor=#FFFFFF;strokeColor=#000000;fontColor=#0d0c0c;" parent="1" target="13" edge="1">
                    <mxGeometry width="50" height="50" relative="1" as="geometry">
                        <mxPoint x="360" y="-540" as="sourcePoint"/>
                        <mxPoint x="70" y="-650" as="targetPoint"/>
                    </mxGeometry>
                </mxCell>
                <mxCell id="243" value="" style="endArrow=classic;html=1;entryX=1;entryY=0.5;entryDx=0;entryDy=0;fillColor=#FFFFFF;strokeColor=#000000;fontColor=#0d0c0c;" parent="1" target="11" edge="1">
                    <mxGeometry width="50" height="50" relative="1" as="geometry">
                        <mxPoint x="360" y="-20" as="sourcePoint"/>
                        <mxPoint x="290" y="-380" as="targetPoint"/>
                    </mxGeometry>
                </mxCell>
                <mxCell id="244" value="关系型数据库" style="rounded=1;whiteSpace=wrap;html=1;fillColor=#FFFFFF;strokeColor=#00CC00;fontColor=#0d0c0c;" parent="1" vertex="1">
                    <mxGeometry x="-280" y="-440" width="120" height="40" as="geometry"/>
                </mxCell>
                <mxCell id="245" value="SQL Server" style="rounded=1;whiteSpace=wrap;html=1;fillColor=#FFFFFF;strokeColor=#00CC00;fontColor=#0d0c0c;" parent="1" vertex="1">
                    <mxGeometry x="-280" y="-380" width="120" height="40" as="geometry"/>
                </mxCell>
                <mxCell id="246" value="Postgresql" style="rounded=1;whiteSpace=wrap;html=1;fillColor=#FFFFFF;strokeColor=#00CC00;fontColor=#0d0c0c;" parent="1" vertex="1">
                    <mxGeometry x="-280" y="-320" width="120" height="40" as="geometry"/>
                </mxCell>
                <mxCell id="247" value="MySQL" style="rounded=1;whiteSpace=wrap;html=1;fillColor=#FFFFFF;strokeColor=#00CC00;fontColor=#0d0c0c;" parent="1" vertex="1">
                    <mxGeometry x="-280" y="-260" width="120" height="40" as="geometry"/>
                </mxCell>
                <mxCell id="248" value="SQLite" style="rounded=1;whiteSpace=wrap;html=1;fillColor=#FFFFFF;strokeColor=#00CC00;fontColor=#0d0c0c;" parent="1" vertex="1">
                    <mxGeometry x="-280" y="-200" width="120" height="40" as="geometry"/>
                </mxCell>
                <mxCell id="250" value="CosmosDB" style="rounded=1;whiteSpace=wrap;html=1;fillColor=#FFFFFF;strokeColor=#00CC00;fontColor=#0d0c0c;" parent="1" vertex="1">
                    <mxGeometry x="-280" y="-140" width="120" height="40" as="geometry"/>
                </mxCell>
                <mxCell id="258" value="RevenDB" style="rounded=1;whiteSpace=wrap;html=1;fillColor=#FFFFFF;strokeColor=#00CC00;fontColor=#0d0c0c;" parent="1" vertex="1">
                    <mxGeometry x="-280" y="-80" width="120" height="40" as="geometry"/>
                </mxCell>
                <mxCell id="259" value="MongoDB" style="rounded=1;whiteSpace=wrap;html=1;fillColor=#FFFFFF;strokeColor=#00CC00;fontColor=#0d0c0c;" parent="1" vertex="1">
                    <mxGeometry x="-280" y="-10" width="120" height="40" as="geometry"/>
                </mxCell>
                <mxCell id="262" value="EF Core" style="rounded=1;whiteSpace=wrap;html=1;fillColor=#FFFFFF;strokeColor=#00CC00;fontColor=#0d0c0c;" parent="1" vertex="1">
                    <mxGeometry x="-280" y="50" width="120" height="40" as="geometry"/>
                </mxCell>
                <mxCell id="263" value="Dapper" style="rounded=1;whiteSpace=wrap;html=1;fillColor=#FFFFFF;strokeColor=#00CC00;fontColor=#0d0c0c;" parent="1" vertex="1">
                    <mxGeometry x="-280" y="110" width="120" height="40" as="geometry"/>
                </mxCell>
                <mxCell id="264" value="NHibernate" style="rounded=1;whiteSpace=wrap;html=1;fillColor=#FFFFFF;strokeColor=#00CC00;fontColor=#0d0c0c;" parent="1" vertex="1">
                    <mxGeometry x="-280" y="160" width="120" height="40" as="geometry"/>
                </mxCell>
                <mxCell id="265" value="Fluent NHibernate" style="rounded=1;whiteSpace=wrap;html=1;fillColor=#FFFFFF;strokeColor=#00CC00;fontColor=#0d0c0c;" parent="1" vertex="1">
                    <mxGeometry x="-280" y="210" width="120" height="40" as="geometry"/>
                </mxCell>
                <mxCell id="266" value="PetaPoco" style="rounded=1;whiteSpace=wrap;html=1;fillColor=#FFFFFF;strokeColor=#00CC00;fontColor=#0d0c0c;" parent="1" vertex="1">
                    <mxGeometry x="-280" y="280" width="120" height="40" as="geometry"/>
                </mxCell>
                <mxCell id="267" value="Marten" style="rounded=1;whiteSpace=wrap;html=1;fillColor=#FFFFFF;strokeColor=#00CC00;fontColor=#0d0c0c;" parent="1" vertex="1">
                    <mxGeometry x="-280" y="340" width="120" height="40" as="geometry"/>
                </mxCell>
                <mxCell id="268" value="SqlSugar" style="rounded=1;whiteSpace=wrap;html=1;fillColor=#FFFFFF;strokeColor=#00CC00;fontColor=#0d0c0c;" parent="1" vertex="1">
                    <mxGeometry x="-280" y="460" width="120" height="40" as="geometry"/>
                </mxCell>
                <mxCell id="269" value="FreeSql" style="rounded=1;whiteSpace=wrap;html=1;fillColor=#FFFFFF;strokeColor=#00CC00;fontColor=#0d0c0c;" parent="1" vertex="1">
                    <mxGeometry x="-280" y="400" width="120" height="40" as="geometry"/>
                </mxCell>
                <mxCell id="280" value="" style="endArrow=classic;html=1;fillColor=#FFFFFF;strokeColor=#000000;fontColor=#0d0c0c;" parent="1" target="15" edge="1">
                    <mxGeometry width="50" height="50" relative="1" as="geometry">
                        <mxPoint x="360" y="690" as="sourcePoint"/>
                        <mxPoint x="180" y="460" as="targetPoint"/>
                    </mxGeometry>
                </mxCell>
                <mxCell id="283" value="" style="endArrow=classic;html=1;entryX=1;entryY=0.5;entryDx=0;entryDy=0;fillColor=#FFFFFF;strokeColor=#000000;fontColor=#0d0c0c;" parent="1" target="23" edge="1">
                    <mxGeometry width="50" height="50" relative="1" as="geometry">
                        <mxPoint x="360" y="1540" as="sourcePoint"/>
                        <mxPoint x="180" y="1570" as="targetPoint"/>
                    </mxGeometry>
                </mxCell>
                <mxCell id="2" value=".NET" style="rounded=1;whiteSpace=wrap;fillColor=#FFFFFF;strokeColor=#000000;fontColor=#0d0c0c;labelBorderColor=none;" parent="1" vertex="1">
                    <mxGeometry x="300" y="-680" width="120" height="40" as="geometry"/>
                </mxCell>
            </root>
        </mxGraphModel>
    </diagram>
</mxfile>